<?xml version="1.0" standalone="no"?>
<!DOCTYPE svg PUBLIC "-//W3C//DTD SVG 20010904//EN"
 "http://www.w3.org/TR/2001/REC-SVG-20010904/DTD/svg10.dtd">
<svg version="1.0" xmlns="http://www.w3.org/2000/svg"
 width="496.000000pt" height="480.000000pt" viewBox="0 0 496.000000 480.000000"
 preserveAspectRatio="xMidYMid meet">

<g transform="translate(0.000000,480.000000) scale(0.100000,-0.100000)"
fill="#000000" stroke="none">
<path d="M2050 4703 c-379 -9 -737 -40 -945 -82 -376 -76 -555 -207 -700 -514
-25 -52 -96 -229 -159 -393 -62 -164 -123 -322 -134 -350 l-21 -52 22 -6 c12
-3 52 -6 89 -6 l67 0 29 43 c16 23 53 84 82 136 121 213 233 328 405 411 192
94 417 126 714 103 l84 -6 -7 -166 c-45 -1117 -273 -1884 -758 -2555 -274
-380 -306 -433 -335 -551 -15 -60 -15 -75 -1 -159 21 -131 63 -213 152 -301
158 -157 370 -200 583 -119 273 102 431 408 537 1039 53 313 96 717 166 1535
22 261 56 653 75 871 19 218 35 399 35 402 0 4 237 7 526 7 l527 0 -7 -112
c-13 -209 -46 -589 -101 -1158 -103 -1057 -134 -1599 -105 -1805 27 -188 113
-397 209 -508 190 -219 444 -320 769 -304 456 22 798 357 958 935 34 125 64
306 64 387 l0 45 -89 0 -89 0 -7 -66 c-16 -149 -78 -301 -157 -382 -82 -84
-150 -121 -273 -147 -92 -19 -150 -19 -240 0 -227 48 -349 208 -412 538 -14
75 -18 149 -18 402 0 174 6 372 13 450 7 77 28 300 47 495 58 599 85 967 85
1164 l0 59 570 -7 570 -7 0 364 0 364 -412 6 c-379 6 -2163 6 -2408 0z"/>
</g>
</svg>
